<?xml version="1.0" encoding="utf-8"?>
<!-- Generator: Adobe Illustrator 27.3.1, SVG Export Plug-In . SVG Version: 6.00 Build 0)  -->
<svg version="1.1" id="Camada_1" xmlns="http://www.w3.org/2000/svg" xmlns:xlink="http://www.w3.org/1999/xlink" x="0px" y="0px"
	 viewBox="0 0 94.9 94.6" style="enable-background:new 0 0 94.9 94.6;" xml:space="preserve">
<style type="text/css">
	.st0{fill:#1A304E;stroke:#1A304E;stroke-width:2.8346;stroke-miterlimit:10;}
	.st1{fill:#1A304E;stroke:#1A304E;stroke-width:1.4173;stroke-miterlimit:10;}
</style>
<g>
	<path class="st0" d="M28.3,7.2c1.5,0,3.3,0.5,5,0.9c0.6,0.1,1.2,0.2,1.8,0.3c1.5,0.3,2.8-0.2,3.9-1.3c1-0.9,2.1-1.9,3.1-2.8
		c0.7-0.6,1.4-1.1,2.2-1.6c2-1.2,4.1-1.2,6.2,0C52,3.6,53.3,4.8,54.6,6c0.5,0.5,1,0.9,1.6,1.4c1.1,1,2.4,1.3,3.9,1
		c1.6-0.3,3.2-0.7,4.8-1C66,7.1,67.1,7,68.2,7.2c2,0.3,3.4,1.5,4.4,3.2c0.9,1.5,1.3,3.2,1.8,4.8c0.2,0.7,0.5,1.5,0.8,2.2
		c0.4,1.1,1.3,1.9,2.4,2.3c1.5,0.5,3,1,4.5,1.5s3,1.2,4.1,2.4c0.9,1,1.3,2.1,1.4,3.4c0.1,1.9-0.3,3.8-0.7,5.7
		c-0.2,0.9-0.3,1.9-0.5,2.8c-0.1,1.1,0.2,2,0.9,2.9c0.7,0.9,1.5,1.7,2.2,2.5s1.4,1.5,2,2.4c2,2.8,2,5.5-0.1,8.2
		c-0.9,1.2-2,2.3-3,3.4c-0.2,0.3-0.5,0.5-0.7,0.8c-1.3,1.3-1.6,2.8-1.2,4.5c0.3,1.5,0.7,3,1,4.5c0.2,1.3,0.3,2.7-0.1,4.1
		c-0.5,1.9-1.8,3.2-3.6,3.9c-1.4,0.6-2.9,1.1-4.4,1.6c-0.8,0.3-1.7,0.6-2.5,1c-0.8,0.3-1.4,1-1.6,1.8c-0.5,1.4-0.9,2.8-1.4,4.2
		c-0.5,1.4-1,2.8-2,4.1c-1.2,1.5-2.7,2.2-4.5,2.2c-1.9,0.1-3.7-0.4-5.5-0.8c-0.8-0.2-1.6-0.3-2.3-0.4c-1.2-0.2-2.3,0.2-3.2,1
		c-1,0.8-1.9,1.7-2.8,2.5c-0.9,0.7-1.7,1.4-2.7,2c-2.3,1.5-4.7,1.4-6.9-0.1c-1.2-0.8-2.3-1.8-3.4-2.7c-0.7-0.5-1.3-1.1-1.9-1.7
		c-1.1-1-2.4-1.2-3.7-0.9c-1.6,0.3-3.1,0.7-4.7,1c-1.2,0.2-2.4,0.4-3.6,0.1c-2-0.4-3.4-1.6-4.4-3.4c-0.8-1.4-1.2-2.9-1.7-4.5
		c-0.2-0.7-0.5-1.5-0.8-2.2c-0.4-1.1-1.2-1.9-2.3-2.3c-1.4-0.5-2.8-0.9-4.2-1.4c-1.1-0.4-2.2-0.8-3.2-1.4c-2.3-1.4-3.1-3.5-2.8-6
		c0.2-1.9,0.7-3.8,1-5.6c0.4-1.9,0.1-3.5-1.3-5c-1-1.4-2-2.6-3-3.8c-0.8-1-1.5-2.1-1.8-3.3c-0.5-1.8-0.1-3.5,1-5
		c0.6-1,1.4-1.8,2.2-2.7c0.7-0.8,1.4-1.6,2.1-2.3c1.1-1.2,1.4-2.5,1.1-4c-0.3-1.6-0.7-3.1-0.9-4.7c-0.2-1.2-0.4-2.4-0.1-3.6
		c0.4-2,1.6-3.4,3.4-4.3c1.5-0.7,3-1.1,4.5-1.7c1-0.4,1.9-0.7,2.9-1.1c0.7-0.3,1.2-0.9,1.4-1.6c0.5-1.2,0.8-2.4,1.3-3.6
		s0.9-2.5,1.4-3.6C23.5,8.2,25.6,7.1,28.3,7.2z M66.8,83.7c0-0.1,0-0.1,0-0.2c1.4,0.2,2.1-0.5,2.6-1.6c0.2-0.4,0.3-0.8,0.5-1.2
		c0.6-1.6,1.1-3.3,1.7-4.9c0.8-2.2,2.4-3.8,4.6-4.6c1.5-0.5,3-1,4.5-1.5c0.8-0.3,1.6-0.7,2.4-1.1c0.5-0.3,0.7-0.8,0.8-1.4
		c0-0.5,0-0.9,0-1.4c-0.3-1.6-0.6-3.2-1-4.8c-0.7-2.9-0.1-5.5,1.9-7.7c0.6-0.7,1.2-1.4,1.8-2.1c0.7-0.9,1.5-1.7,2.2-2.7
		c0.6-0.8,0.6-1.8,0-2.7c-0.3-0.6-0.7-1.1-1.2-1.6c-1-1.2-2.1-2.3-3.1-3.5c-1.8-2.1-2.3-4.4-1.7-7c0.4-1.7,0.7-3.5,1-5.3
		c0.3-1.7-0.2-2.6-1.8-3.3c-0.6-0.3-1.3-0.5-1.9-0.7c-1.4-0.5-2.9-0.9-4.3-1.5c-1.7-0.7-3.1-1.9-3.8-3.6c-0.6-1.3-1-2.7-1.5-4.1
		c-0.4-1.1-0.8-2.2-1.3-3.2c-0.4-0.8-1.1-1.2-2-1.1c-0.6,0-1.2,0-1.8,0.2c-1.3,0.3-2.6,0.6-4,0.9c-2.6,0.5-5,0.3-7.1-1.3
		c-0.6-0.5-1.2-1-1.8-1.5c-1.1-0.9-2.1-2-3.3-2.8c-1.2-0.9-2.3-0.9-3.6,0C44.8,7,44,7.8,43.2,8.5c-1,0.8-1.9,1.7-2.9,2.5
		c-1.4,1-2.9,1.5-4.6,1.3c-1.1-0.1-2.2-0.3-3.3-0.5c-1.5-0.3-3-0.8-4.6-0.7c-0.8,0-1.5,0.3-1.9,1c-0.3,0.6-0.6,1.2-0.9,1.9
		c-0.5,1.5-1,3.1-1.5,4.6c-0.8,2.3-2.3,3.9-4.6,4.8c-1.3,0.5-2.6,0.9-4,1.3c-1,0.4-2.1,0.7-3,1.3c-0.5,0.4-0.7,0.8-0.7,1.4
		c0,0.7,0,1.5,0.1,2.2c0.2,1.4,0.6,2.7,0.9,4c0.7,3,0,5.6-2.1,7.9c-0.8,0.9-1.6,1.7-2.3,2.6c-0.5,0.6-1.1,1.3-1.5,2
		c-0.6,0.8-0.5,1.8,0,2.6c0.3,0.4,0.6,0.9,0.9,1.2c1.1,1.2,2.2,2.5,3.3,3.7c1.2,1.4,2.1,3,2,5c-0.1,1.3-0.3,2.5-0.5,3.8
		c-0.3,1.6-0.8,3.1-0.7,4.7c0,0.8,0.3,1.4,1,1.8c0.6,0.4,1.2,0.7,1.9,0.9c1.5,0.5,3,1,4.6,1.5c2.4,0.9,4.1,2.5,4.9,4.9
		c0.4,1,0.7,2.1,1.1,3.1c0.4,1.1,0.8,2.2,1.3,3.2c0.3,0.6,0.8,1,1.6,1.1c0.6,0,1.2,0,1.7-0.1c1.5-0.3,3.1-0.6,4.6-1
		c2.9-0.6,5.5,0,7.8,2c0.7,0.7,1.4,1.3,2.2,2s1.6,1.4,2.5,2c0.8,0.5,1.7,0.5,2.5,0c0.7-0.4,1.3-0.9,1.9-1.4c1.3-1.1,2.6-2.3,4-3.4
		c1.3-1,2.9-1.5,4.6-1.4c1.2,0.1,2.4,0.4,3.6,0.6C64.1,83.2,65.5,83.5,66.8,83.7z"/>
	<path class="st0" d="M27.6,69c-0.7,0-1.3-0.3-1.7-1c-0.4-0.7-0.3-1.4,0.1-2c0.3-0.4,0.6-0.7,0.9-1c9-9,18-18,27.1-27
		c3.9-3.9,7.7-7.7,11.6-11.6c0.6-0.6,1.2-1,2.1-0.8c1.4,0.3,2,2,1.1,3c-1,1.1-2.1,2.2-3.2,3.2C54.8,42.7,44,53.5,33.2,64.3
		c-1.4,1.4-2.8,2.8-4.2,4.2C28.6,68.9,28.2,69,27.6,69z"/>
	<path class="st1" d="M71.1,62c0,5-4.1,9-9.2,9c-4.5,0-9.1-3.8-9-9.4c0-4.3,3.9-9,9.4-8.8C66.9,52.9,71.2,56.6,71.1,62z M62,67.1
		c3,0,5.3-2.3,5.3-5.2c0-2.9-2.3-5.3-5-5.3c-3.2-0.1-5.5,2.4-5.5,5.2C56.8,64.8,59.1,67.1,62,67.1z"/>
	<path class="st1" d="M32.9,41.8c-5,0-9.1-4-9.1-9c0-5.1,4-9.2,9.1-9.2c5,0,9,3.9,9.1,9.1C42.1,37.7,37.9,41.8,32.9,41.8z
		 M38.2,32.7c0-2.9-2.3-5.3-5.1-5.3c-3,0-5.4,2.3-5.4,5.3c0,2.9,2.4,5.2,5.3,5.2C35.8,38,38.2,35.7,38.2,32.7z"/>
</g>
</svg>
