<?xml version="1.0" encoding="utf-8"?>
<!-- Generator: Adobe Illustrator 27.3.1, SVG Export Plug-In . SVG Version: 6.00 Build 0)  -->
<svg version="1.1" id="Camada_1" xmlns="http://www.w3.org/2000/svg" xmlns:xlink="http://www.w3.org/1999/xlink" x="0px" y="0px"
	 viewBox="0 0 94.9 94.6" style="enable-background:new 0 0 94.9 94.6;" xml:space="preserve">
<style type="text/css">
	.st0{fill:#1A304E;stroke:#1A304E;stroke-width:1.4173;stroke-miterlimit:10;}
	.st1{fill:#1A304E;}
</style>
<g>
	<path class="st0" d="M48.3,93.2C30,93.4,14.2,81.3,9.2,63.8c-2.4-8.7-1.6-17.1,1.1-25.5c1.2-3.8,2.6-7.5,4.5-11
		c0.9-1.7,1.7-2.1,3.6-1.6c4,1,6.3,3.8,7.8,7.4c0.2,0.4,0.3,0.9,0.5,1.4c0.7,1.8,2.3,2.7,3.9,2.3c2.2-0.6,3.2-2,2.8-4.1
		c-0.5-2.1-1.1-4.3-1.6-6.4c-1.9-7.8,0.8-14,6.2-19.3c2.6-2.5,5.6-4.3,9-5.4c0.6-0.2,1.3-0.4,2-0.2c1.5,0.4,2,2,0.9,3.4
		c-3,3.9-3.3,8.2-2.1,12.8c0.4,1.5,1.1,3,2.1,4.2c2.4,3,6.6,2.9,8.8-0.2c1.2-1.7,1.8-3.6,2.3-5.5c0.6-2.4,1.9-3,3.9-1.6
		c3.4,2.5,4.9,6,5.3,10.1c0.3,3.5-0.6,6.6-2.5,9.5c-1.7,2.7-1.9,5.5-0.1,8.2c1.9,2.8,5.1,3.1,7.5,0.7c2-1.9,2.8-4.4,3.5-7
		c0.3-1.1,0.8-2.2,2.1-2.3c1.3-0.1,1.9,0.8,2.4,1.9c2.7,6.3,4.6,12.7,4.1,19.6C86.5,64.6,83.3,73,77,80.1
		c-5.6,6.3-12.4,10.4-20.7,12.1C53.5,93,50.7,93.4,48.3,93.2z M43.7,8.1c-0.5,0.2-0.7,0.2-0.8,0.3c-5.2,3.8-9.1,9.9-7,17.4
		c0.5,2,1.1,4,1.5,6c0.9,4.4-1.5,7.8-6.1,9c-3.5,0.9-7.4-1.4-8.7-5.3c-0.6-1.8-1.4-3.6-3-4.8c-1.2-0.8-1.6-0.8-2.2,0.5
		c-1.4,2.9-2.4,5.9-3.4,9c-1.5,5.1-2.7,10.3-2.1,15.7c1.1,10.5,5.6,19.3,14,25.7c10.5,8,22.2,9.8,34.5,5.2
		c9.2-3.5,15.7-10.1,19.5-19.2c3.2-7.5,4.2-15.3,1.6-23.2c-0.2-0.7-0.3-1.4-0.8-2.1c-0.8,1.1-1.5,2.2-2.2,3.1
		c-4,5-10.8,4.7-14.4-0.5c-2.8-4.1-2.6-8.3-0.2-12.4c0.8-1.5,1.7-2.9,1.9-4.6c0.4-2.8,0-5.3-1.7-7.9c-0.5,1.1-0.9,2-1.4,2.9
		c-3.5,6.4-11.5,7.4-16,1.9c-2.4-2.9-3.6-6.3-3.7-10.1C43,12.5,43,10.3,43.7,8.1z"/>
	<path class="st0" d="M58.4,48c0,0.9-0.6,1.6-1.1,2.3c-4.5,6.7-9,13.4-13.4,20.1c-1.2,1.8-2.4,3.6-3.6,5.4c-0.2,0.3-0.4,0.6-0.7,0.9
		c-0.8,0.8-1.8,0.9-2.7,0.2c-0.9-0.7-1.2-1.7-0.6-2.7c1.1-1.8,2.3-3.6,3.5-5.4c4.8-7.2,9.6-14.4,14.4-21.6c0.7-1,1.4-1.7,2.7-1.3
		C57.9,46.2,58.4,47,58.4,48z"/>
	<path class="st1" d="M38.1,45.7c3.6,0,6.5,2.9,6.5,6.4c0,3.6-3,6.6-6.5,6.6c-3.6,0-6.5-3-6.5-6.6C31.6,48.5,34.4,45.7,38.1,45.7z
		 M40.2,52.2c0-1.3-0.9-2.2-2.1-2.2c-1.2,0-2.1,0.9-2.1,2.2c0,1.4,0.8,2.2,2.1,2.2C39.3,54.4,40.2,53.5,40.2,52.2z"/>
	<path class="st1" d="M63.3,71.2c0,3.7-2.9,6.6-6.5,6.6s-6.6-3-6.5-6.6c0-3.5,3-6.5,6.5-6.5C60.4,64.7,63.3,67.6,63.3,71.2z
		 M58.9,71.3c0-1.4-0.7-2.2-2.1-2.2c-1.3,0-2.2,0.8-2.2,2.1c0,1.2,1,2.3,2.1,2.3C57.9,73.5,58.9,72.5,58.9,71.3z"/>
</g>
</svg>
