<?xml version="1.0" encoding="utf-8"?>
<!-- Generator: Adobe Illustrator 27.3.1, SVG Export Plug-In . SVG Version: 6.00 Build 0)  -->
<svg version="1.1" id="Camada_1" xmlns="http://www.w3.org/2000/svg" xmlns:xlink="http://www.w3.org/1999/xlink" x="0px" y="0px"
	 viewBox="0 0 100 64.6" style="enable-background:new 0 0 100 64.6;" xml:space="preserve">
<style type="text/css">
	.st0{fill:#1A304E;}
</style>
<g>
	<path class="st0" d="M32.8,62.3c0-19.9,0-39.8,0-59.8c5.2,0,10.3,0,15.5,0c0,0.1,0,0.2,0,0.2c0,0.6,0,1.1,0,1.7
		c0,18.9,0,37.9,0,56.8c0,0.3,0,0.6,0,0.8c0,0.2-0.1,0.4-0.3,0.3c-0.6,0-1.1,0-1.7,0c-4.4,0-8.8,0-13.2,0
		C33,62.3,32.9,62.3,32.8,62.3z"/>
	<path class="st0" d="M71.7,32.4c0-9.9,0-19.7,0-29.6c0-0.3,0.1-0.3,0.4-0.3c3.2,0,6.4,0,9.7,0c0.3,0,0.3,0.1,0.3,0.4
		c0,0.6,0,1.1,0,1.7c0,18.8,0,37.6,0,56.5c0,0.4,0,0.7,0,1.1c0,0.2-0.1,0.3-0.3,0.3c-2.5,0-4.9,0-7.4,0c-0.8,0-1.5,0-2.3,0
		c-0.3,0-0.3-0.1-0.3-0.3C71.7,52.1,71.7,42.3,71.7,32.4z"/>
	<path class="st0" d="M4,62.3c0-0.2,0-0.3,0-0.5C4,42.2,4,22.6,4,3c0-0.5,0-0.5,0.5-0.5c3.1,0,6.2,0,9.3,0c0.2,0,0.3,0,0.5,0
		c0,0.2,0,0.3,0,0.4c0,19.6,0,39.3,0,58.9c0,0.5,0,0.5-0.5,0.5c-3,0-6,0-9,0C4.6,62.3,4.3,62.3,4,62.3z"/>
	<path class="st0" d="M84.3,32.4c0-9.9,0-19.7,0-29.6c0-0.2,0.1-0.3,0.3-0.3c1.5,0,3.1,0,4.6,0c0.2,0,0.3,0.1,0.3,0.3
		c0,0.5,0,1,0,1.4c0,18.9,0,37.8,0,56.7c0,0.4,0,0.8,0,1.1c0,0.2-0.1,0.3-0.3,0.3c-1.5,0-3,0-4.6,0c-0.3,0-0.4-0.1-0.4-0.4
		C84.3,52.1,84.3,42.3,84.3,32.4C84.3,32.4,84.3,32.4,84.3,32.4z"/>
	<path class="st0" d="M62.3,32.4c0-9.8,0-19.6,0-29.5c0-0.5,0-0.5,0.5-0.5c1.4,0,2.8,0,4.2,0c0.5,0,0.5,0,0.5,0.5
		c0,19.1,0,38.2,0,57.2c0,0.6,0,1.2,0,1.8c0,0.3-0.1,0.4-0.4,0.4c-1.5,0-2.9,0-4.4,0c-0.3,0-0.4-0.1-0.4-0.4c0-2.1,0-4.2,0-6.2
		C62.3,47.9,62.3,40.2,62.3,32.4C62.3,32.4,62.3,32.4,62.3,32.4z"/>
	<path class="st0" d="M53.2,62.3c0-0.2,0-0.3,0-0.4c0-19.7,0-39.3,0-59c0-0.3,0.1-0.5,0.4-0.4c1.5,0,2.9,0,4.4,0
		c0.3,0,0.4,0.1,0.4,0.4c0,0.6,0,1.1,0,1.7c0,18.9,0,37.9,0,56.8c0,0.1,0,0.3,0,0.4c0,0.5,0,0.5-0.5,0.5c-1.5,0-3,0-4.5,0
		C53.3,62.4,53.3,62.3,53.2,62.3z"/>
	<path class="st0" d="M20.9,32.4c0-9.5,0-18.9,0-28.4c0-0.4,0-0.8,0-1.2c0-0.2,0.1-0.3,0.3-0.3c1.5,0,3,0,4.6,0
		c0.2,0,0.3,0.1,0.3,0.3c0,0.6,0,1.1,0,1.7c0,18.8,0,37.6,0,56.4c0,0.4,0,0.8,0,1.1c0,0.2-0.1,0.3-0.3,0.3c-1.5,0-3,0-4.5,0
		c-0.3,0-0.3-0.1-0.3-0.3c0-1,0-2.1,0-3.1C20.9,50.1,20.9,41.2,20.9,32.4C20.9,32.4,20.9,32.4,20.9,32.4z"/>
	<path class="st0" d="M93.5,2.5c0.9,0,1.7,0,2.5,0c0,19.9,0,39.9,0,59.8c-0.8,0-1.7,0-2.5,0C93.5,42.4,93.5,22.5,93.5,2.5z"/>
</g>
</svg>
