<?xml version="1.0" encoding="utf-8"?>
<!-- Generator: Adobe Illustrator 27.3.1, SVG Export Plug-In . SVG Version: 6.00 Build 0)  -->
<svg version="1.1" id="Camada_1" xmlns="http://www.w3.org/2000/svg" xmlns:xlink="http://www.w3.org/1999/xlink" x="0px" y="0px"
	 viewBox="0 0 94.9 94.6" style="enable-background:new 0 0 94.9 94.6;" xml:space="preserve">
<style type="text/css">
	.st0{fill:#1A304E;}
</style>
<g>
	<g>
		<path class="st0" d="M75.2,67.9c-1.4-0.1-2.9-0.1-4.3-0.3c-2.1-0.2-3.8-1.2-5.3-2.7c-3.4-3.4-6.9-6.8-10.3-10.2
			c-1.1-1.1-2.3-2.2-3.3-3.4c-2.3-2.5-7.1-3-10,0c-4.3,4.4-8.7,8.8-13.1,13.1c-1.6,1.6-3.5,2.7-5.7,3.1c-0.5,0.1-1,0.2-1.4,0.2
			c-1.6,0-3.2,0-4.7,0c-0.6,0-1.1-0.2-1.5-0.6c-3.3-3.3-6.6-6.6-9.8-9.9c-3.2-3.3-4.7-7.3-4.1-11.9c0.3-2.5,1.3-4.8,2.9-6.7
			c1-1.1,2-2.2,3.1-3.3c2.6-2.6,5.2-5.2,7.8-7.8c0.4-0.5,0.9-0.7,1.6-0.7c1.8,0,3.5,0,5.3,0.1c2.4,0.2,4.5,1,6.3,2.8
			c4.2,4.3,8.5,8.6,12.8,12.9C42.5,44,44,45,46,45.4c2.3,0.4,4.2-0.5,5.9-2c1.5-1.4,2.8-2.8,4.3-4.2c3.2-3.2,6.4-6.4,9.7-9.6
			c1.4-1.4,3.1-2.1,5.1-2.4c2.4-0.3,4.8-0.1,7.2-0.2c0.7,0,1.2,0.2,1.7,0.7c1,1,2,1.9,3,2.9c2.2,2.2,4.5,4.4,6.7,6.6
			c2.1,2.1,3.4,4.7,4,7.7c1,5-0.7,9.3-4.1,12.9c-2.1,2.2-4.4,4.3-6.6,6.5c-1,1-2.1,2-3.1,3.1c-0.4,0.4-0.8,0.6-1.4,0.6
			C77.1,67.8,76.1,67.8,75.2,67.9C75.2,67.8,75.2,67.8,75.2,67.9z"/>
		<path class="st0" d="M74.7,22.6c-0.5,0.1-0.8,0.1-1.1,0.1c-2.3-0.1-4.5,0.3-6.6,1.1c-1.4,0.6-2.7,1.5-3.8,2.6
			c-4.4,4.4-8.8,8.8-13.2,13.1c-0.6,0.6-1.2,1-1.9,1.4c-1.2,0.7-2.2,0.3-3.2-0.6c-1.1-1-2.2-2.1-3.3-3.2c-2.5-2.6-5-5.2-7.5-7.8
			c-1.4-1.4-2.9-2.8-4.5-4.1c-1.5-1.3-3.3-2-5.2-2.3c-1-0.2-2.1-0.2-3.1-0.3c-0.3,0-0.6-0.1-1.1-0.2c0.4-0.5,0.8-0.8,1.1-1.2
			c5.5-5.5,11-11,16.5-16.4c2.1-2.1,4.7-3.2,7.6-3.7C50,0.6,54,1.9,57.3,5.1c5.7,5.5,11.3,11.2,16.9,16.8
			C74.3,22.1,74.5,22.3,74.7,22.6z"/>
		<path class="st0" d="M20.2,71.9c0.5,0,0.9-0.1,1.3-0.1c2.3,0,4.5-0.6,6.6-1.7c2-1.1,3.6-2.6,5.1-4.2c3.7-3.7,7.4-7.4,11.1-11.1
			c0.3-0.3,0.6-0.6,0.9-0.9c1-0.9,2.1-0.9,3.2-0.1c0.7,0.6,1.4,1.2,2.1,1.8c4.2,4.1,8.3,8.3,12.5,12.4c2.1,2.1,4.7,3.4,7.6,3.7
			c1.2,0.1,2.5,0.2,3.7,0.2c0.1,0,0.2,0,0.5,0.1c-0.3,0.4-0.6,0.7-0.9,0.9c-5.3,5.4-10.7,10.7-16,16c-2.1,2.1-4.5,3.4-7.4,4.1
			c-1.6,0.3-3.3,0.5-4.9,0.2c-2.5-0.4-4.9-1.4-6.8-3c-1.5-1.3-2.9-2.7-4.3-4.1C30,81.8,25.6,77.4,21.3,73
			C20.9,72.7,20.6,72.3,20.2,71.9z"/>
	</g>
</g>
</svg>
