<?xml version="1.0" encoding="utf-8"?>
<!-- Generator: Adobe Illustrator 27.3.1, SVG Export Plug-In . SVG Version: 6.00 Build 0)  -->
<svg version="1.1" id="Camada_1" xmlns="http://www.w3.org/2000/svg" xmlns:xlink="http://www.w3.org/1999/xlink" x="0px" y="0px"
	 viewBox="0 0 100 73.4" style="enable-background:new 0 0 100 73.4;" xml:space="preserve">
<style type="text/css">
	.st0{fill:#1A304E;}
</style>
<g>
	<path class="st0" d="M4.4,31.6c0.3,0,0.5,0,0.7,0c27.7,0,55.5,0,83.2,0c2.2,0,4.4,0,6.6,0c0.8,0,0.8,0,0.8,0.8c0,5.6,0,11.3,0,16.9
		c0,4.4,0,8.8,0,13.2c0,2.3-1,4.2-2.3,6c-1,1.3-2.2,2.3-3.7,2.8c-1.2,0.5-2.5,0.8-3.8,0.8c-23.5,0-47.1,0-70.6,0
		c-1.8,0-3.4-0.3-5-1.1c-3-1.5-4.9-4-5.6-7.4c-0.1-0.8-0.2-1.5-0.2-2.3c0-9.7,0-19.5,0-29.2C4.4,32,4.4,31.9,4.4,31.6z M52.6,57.1
		C52.6,57.1,52.6,57.1,52.6,57.1c3.1,0,6.3,0,9.4,0c0.6,0,1.3-0.1,1.9-0.4c0.9-0.4,1.3-1.3,1.2-2.5c-0.1-1-0.7-1.8-1.7-2
		c-0.5-0.1-1.1-0.2-1.7-0.2c-6.3,0-12.5,0-18.8,0c-0.5,0-1.1,0.1-1.6,0.3c-0.9,0.3-1.4,1.1-1.5,2.1c0,1.2,0.4,2,1.4,2.3
		c0.6,0.2,1.2,0.3,1.9,0.3C46.3,57.1,49.5,57.1,52.6,57.1z M27.3,57.1C27.3,57.1,27.3,57.1,27.3,57.1c1.5,0,3,0,4.6-0.1
		c0.5,0,1-0.1,1.5-0.3c0.9-0.3,1.6-1.6,1.5-2.5c-0.3-1.4-1-2.2-2.3-2.2c-3.5,0-7,0-10.5,0c-2,0-3.1,2-2.1,3.8
		c0.2,0.3,0.5,0.5,0.7,0.7c0.7,0.4,1.5,0.6,2.3,0.5C24.4,57.1,25.9,57.1,27.3,57.1z"/>
	<path class="st0" d="M49.9,16.5c-14.3,0-28.5,0-42.8,0c-0.8,0-1.5,0-2.3-0.1c-0.2,0-0.4-0.2-0.4-0.3c0-2.1-0.1-4.3,0.2-6.3
		c0.8-5.1,5.1-8.5,10.2-8.5c10.5,0,21,0,31.5,0c12.9,0,25.9,0,38.8,0c4.1,0,7.1,1.7,9.2,5.2c0.8,1.4,1.3,3,1.3,4.6
		c0,1.6,0,3.2,0,4.8c0,0.4-0.2,0.6-0.6,0.6c-0.4,0-0.7,0-1.1,0C79.3,16.5,64.6,16.5,49.9,16.5z"/>
</g>
</svg>
